<svg width="23.333313" height="20.000122" viewBox="0 0 23.3333 20.0001" fill="none" xmlns="http://www.w3.org/2000/svg" xmlns:xlink="http://www.w3.org/1999/xlink">
	<desc>
			Created with Pixso.
	</desc>
	<defs/>
	<path id="cart" d="M7.51886 13.1946L7.51776 13.1946C7.1416 13.1954 6.83594 13.491 6.83594 13.8541C6.83594 14.2179 7.1427 14.5139 7.51953 14.5139L19.9154 14.5139C20.293 14.5139 20.599 14.8092 20.599 15.1736C20.599 15.538 20.293 15.8334 19.9154 15.8334L7.51953 15.8334C6.38879 15.8334 5.46875 14.9454 5.46875 13.8541C5.46875 13.0421 5.97845 12.343 6.70496 12.0382C6.57532 11.4756 4.32336 1.69556 4.23688 1.31946L0.683594 1.31946C0.30603 1.31946 0 1.02417 0 0.659668C0 0.295288 0.30603 0 0.683594 0L4.78516 0C5.10559 0 5.38293 0.214722 5.45258 0.516602L5.94122 2.63892L22.6498 2.63892C22.8643 2.63892 23.0663 2.73608 23.1956 2.90137C23.3246 3.06665 23.366 3.28076 23.307 3.47986L20.5726 12.7159C20.4888 12.9991 20.2205 13.1945 19.9154 13.1945L7.52148 13.1945L7.51886 13.1946ZM21.7435 3.95837L19.3997 11.875L8.06787 11.875L6.24493 3.95837L21.7435 3.95837ZM8.74994 20.0001C7.6012 20.0001 6.66656 19.0656 6.66656 17.9167C6.66656 16.7681 7.6012 15.8335 8.74994 15.8335C9.89862 15.8335 10.8333 16.7681 10.8333 17.9167C10.8333 19.0656 9.89862 20.0001 8.74994 20.0001ZM16.6666 17.9167C16.6666 19.0656 17.6012 20.0001 18.7499 20.0001C19.8986 20.0001 20.8333 19.0656 20.8333 17.9167C20.8333 16.7681 19.8986 15.8335 18.7499 15.8335C17.6012 15.8335 16.6666 16.7681 16.6666 17.9167ZM9.44434 17.9167C9.44434 17.5339 9.13275 17.2223 8.74994 17.2223C8.36707 17.2223 8.05548 17.5339 8.05548 17.9167C8.05548 18.2997 8.36707 18.6112 8.74994 18.6112C9.13275 18.6112 9.44434 18.2997 9.44434 17.9167ZM18.7499 17.2223C19.1328 17.2223 19.4443 17.5339 19.4443 17.9167C19.4443 18.2997 19.1328 18.6112 18.7499 18.6112C18.3671 18.6112 18.0555 18.2997 18.0555 17.9167C18.0555 17.5339 18.3671 17.2223 18.7499 17.2223Z" clip-rule="evenodd" fill="#FFFFFF" fill-opacity="1.000000" fill-rule="evenodd"/>
</svg>
