<svg width="143.000000" height="25.000000" viewBox="0 0 143 25" fill="none" xmlns="http://www.w3.org/2000/svg" xmlns:xlink="http://www.w3.org/1999/xlink">
	<desc>
			Created with Pixso.
	</desc>
	<defs/>
	<path id="audiophile" d="M7.36264 20.3849C8.99353 20.3849 10.4497 19.8477 11.5995 18.9153L12.0137 19.9093L15.7527 19.9093L15.7527 5.85315L12.1479 5.85291L11.6531 6.93982C10.4936 5.98218 9.01642 5.42932 7.36264 5.42932C3.06909 5.42932 0 8.52771 0 12.881C0 17.2493 3.06909 20.3849 7.36264 20.3849ZM8.00934 16.098C9.82095 16.098 11.1525 14.7278 11.1525 12.8921C11.1525 11.0677 9.82095 9.69751 8.00934 9.69751C6.1868 9.69751 4.86615 11.0677 4.86615 12.8921C4.86615 14.7278 6.19772 16.098 8.00934 16.098ZM25.544 20.3849C29.6917 20.3849 32.4542 17.823 32.4542 13.8899L32.4542 5.86792L27.6177 5.86792L27.6177 13.6793C27.6177 15.1482 26.836 16.0355 25.544 16.0355C24.2516 16.0355 23.4549 15.163 23.4549 13.6793L23.4549 5.86792L18.6184 5.86792L18.6184 13.8899C18.6184 17.823 21.396 20.3849 25.544 20.3849ZM41.8721 20.3997C43.5076 20.3997 44.9648 19.8429 46.1074 18.8804L46.5635 19.9242L50.1425 19.9242L50.1425 0.792114L45.3611 0.792114L45.3611 6.38306C44.3548 5.75732 43.1685 5.40723 41.8721 5.40723C37.5634 5.40723 34.4943 8.52771 34.4943 12.896C34.4943 17.2644 37.5634 20.3997 41.8721 20.3997ZM42.519 16.1128C44.3306 16.1128 45.6622 14.7317 45.6622 12.8964C45.6622 11.0607 44.3306 9.67957 42.519 9.67957C40.7074 9.67957 39.3758 11.0607 39.3758 12.8964C39.3758 14.7317 40.7074 16.1128 42.519 16.1128ZM57.9755 4.10889L57.9755 0L53.2131 0L53.2131 4.10889L57.9755 4.10889ZM58.0127 19.9238L58.0127 5.86768L53.1762 5.86768L53.1762 19.9238L58.0127 19.9238ZM68.1095 20.3849C72.6727 20.3849 75.9821 17.2384 75.9821 12.896C75.9821 8.53894 72.6727 5.40747 68.1095 5.40747C63.5315 5.40747 60.237 8.53894 60.237 12.896C60.237 17.2384 63.5315 20.3849 68.1095 20.3849ZM68.1095 16.0358C69.873 16.0358 71.1378 14.7549 71.1378 12.8966C71.1378 11.0492 69.873 9.75708 68.1095 9.75708C66.346 9.75708 65.0812 11.0381 65.0812 12.8964C65.0812 14.7546 66.346 16.0355 68.1095 16.0358ZM82.9978 25L82.9978 19.4663C83.9888 20.0654 85.1511 20.3997 86.4208 20.3997C90.7144 20.3997 93.7835 17.2754 93.7835 12.896C93.7835 8.51672 90.7144 5.40723 86.4208 5.40723C84.7523 5.40723 83.2662 5.98511 82.1114 6.98462L81.5056 5.86792L78.2165 5.86792L78.2165 25L82.9978 25ZM85.7739 16.1125C87.5743 16.1125 88.9171 14.7423 88.9171 12.8958C88.9171 11.0492 87.5855 9.67896 85.7739 9.67896C83.9623 9.67896 82.6307 11.0492 82.6307 12.8958C82.6307 14.7423 83.9623 16.1125 85.7739 16.1125ZM100.839 19.9242L100.839 12.4181C100.839 10.6143 101.751 9.57458 103.215 9.57458C104.477 9.57458 105.046 10.4011 105.046 12.0222L105.046 19.9242L109.882 19.9242L109.882 11.4597C109.882 7.81628 107.811 5.45227 104.587 5.45227C103.188 5.45227 101.873 5.95935 100.839 6.79285L100.839 0.792114L96.0023 0.792114L96.0023 19.9242L100.839 19.9242ZM117.574 4.10889L117.574 0L112.811 0L112.811 4.10889L117.574 4.10889ZM117.611 19.9238L117.611 5.86768L112.774 5.86768L112.774 19.9238L117.611 19.9238ZM125.489 19.9242L125.489 0.792114L120.653 0.792114L120.653 19.9242L125.489 19.9242ZM135.34 20.3851C138.863 20.3851 141.704 18.3809 142.692 15.1729L137.879 15.1729C137.414 15.9957 136.47 16.4911 135.34 16.4911C133.813 16.4911 132.79 15.6573 132.474 14.045L142.9 14.045C142.963 13.6104 143 13.1868 143 12.7633L143 12.7628C143 8.63965 139.866 5.40747 135.34 5.40747C130.933 5.40747 127.714 8.57605 127.714 12.8854C127.714 17.1796 130.959 20.3851 135.34 20.3851ZM138.236 11.3639C137.811 9.95911 136.8 9.20105 135.34 9.20105C133.931 9.20105 132.951 9.96765 132.559 11.3639L138.236 11.3639Z" clip-rule="evenodd" fill="#FFFFFF" fill-opacity="1.000000" fill-rule="evenodd"/>
</svg>
